<?xml version="1.0" encoding="utf-8"?>
<!-- Generator: Adobe Illustrator 16.0.4, SVG Export Plug-In . SVG Version: 6.00 Build 0)  -->
<!DOCTYPE svg PUBLIC "-//W3C//DTD SVG 1.1//EN" "http://www.w3.org/Graphics/SVG/1.1/DTD/svg11.dtd">
<svg version="1.1" id="Layer_2" xmlns="http://www.w3.org/2000/svg" xmlns:xlink="http://www.w3.org/1999/xlink" x="0px" y="0px"
	 width="166.104px" height="149.052px" viewBox="0 0 166.104 149.052" enable-background="new 0 0 166.104 149.052"
	 xml:space="preserve">
<g>
	<polygon fill="#FFFFFF" points="84.142,100.363 107.716,104.17 107.708,79.525 83.04,76.033 	"/>
	<polygon fill="#FFFFFF" points="85.536,131.006 107.722,135.131 107.716,113.408 84.56,109.503 	"/>
	<polygon fill="#FFFFFF" points="49.04,61.206 72.796,64.365 71.067,36.771 46.194,34.033 	"/>
	<polygon fill="#FFFFFF" points="17.306,56.99 39.796,59.982 36.528,32.964 13.048,30.375 	"/>
	<polygon fill="#FFFFFF" points="52.61,95.284 74.964,98.889 73.448,74.682 50.108,71.387 	"/>
	<polygon fill="#FFFFFF" points="126.685,61.913 115.265,68.328 115.646,40.247 127.597,34.752 	"/>
	<polygon fill="#FFFFFF" points="125.536,95.969 114.794,103.385 115.124,78.817 126.343,72.085 	"/>
	<polygon fill="#FFFFFF" points="141.142,53.787 130.983,59.492 132.087,32.695 142.661,27.846 	"/>
	<polygon fill="#FFFFFF" points="82.573,65.657 107.712,69 107.7,40.808 81.315,37.898 	"/>
	<polygon fill="#FFFFFF" points="96.987,25.956 122.552,28.486 110.292,33.711 83.827,30.957 	"/>
	<polygon fill="#FFFFFF" points="113.597,19.639 137.993,21.901 127.157,26.527 101.937,24.073 	"/>
	<polygon fill="#FFFFFF" points="128.409,14.021 151.712,16.051 142.073,20.164 118.003,17.97 	"/>
	<polygon fill="#FFFFFF" points="62.896,22.576 87.048,24.968 73.55,29.883 48.601,27.281 	"/>
	<polygon fill="#FFFFFF" points="80.89,16.611 104.007,18.756 92.032,23.115 68.185,20.791 	"/>
	<polygon fill="#FFFFFF" points="30.638,19.377 53.501,21.644 38.913,26.275 15.362,23.82 	"/>
</g>
</svg>
