<?xml version="1.0" encoding="UTF-8"?>
<svg width="115px" height="16px" viewBox="0 0 115 16" version="1.1" xmlns="http://www.w3.org/2000/svg" xmlns:xlink="http://www.w3.org/1999/xlink">
    <!-- Generator: sketchtool 54.1 (76490) - https://sketchapp.com -->
    <title>12CB759B-12F7-41F9-8ECE-A7CDB82E3DCA</title>
    <desc>Created with sketchtool.</desc>
    <g id="Help-hub" stroke="none" stroke-width="1" fill="none" fill-rule="evenodd">
        <g id="Help-Hub_Home" transform="translate(-40.000000, -1094.000000)" fill="#000000" fill-rule="nonzero">
            <g id="footer" transform="translate(0.000000, 1076.000000)">
                <g id="logo---noir" transform="translate(40.000000, 18.000000)">
                    <path d="M0.32,8.60869565 L0.32,8.57391304 C0.32,6.11826087 2.22608696,3.98956522 4.83826087,3.98956522 C7.43304348,3.98956522 9.32173913,6.08347826 9.32173913,8.5426087 L9.32173913,8.5773913 C9.32173913,11.0330435 7.41565217,13.1617391 4.80347826,13.1617391 C2.20869565,13.1617391 0.32,11.0643478 0.32,8.60869565 Z M8.41043478,8.60869565 L8.41043478,8.57391304 C8.41043478,6.4626087 6.83130435,4.77913043 4.80347826,4.77913043 C2.72347826,4.77913043 1.23130435,6.48 1.23130435,8.53913043 L1.23130435,8.57391304 C1.23130435,10.6852174 2.81043478,12.3686957 4.83826087,12.3686957 C6.91826087,12.3686957 8.41043478,10.6713043 8.41043478,8.60869565 Z" id="Shape"></path>
                    <path d="M11.9130435,4.19478261 L12.7547826,4.19478261 L12.7547826,6.15304348 C13.5095652,5.00173913 14.626087,3.98956522 16.3617391,3.98956522 C18.4730435,3.98956522 20.6226087,5.69043478 20.6226087,8.5426087 L20.6226087,8.5773913 C20.6226087,11.4295652 18.4765217,13.1617391 16.3617391,13.1617391 C14.6086957,13.1617391 13.4747826,12.1669565 12.7547826,11.0678261 L12.7547826,15.7043478 L11.9130435,15.7043478 L11.9130435,4.19478261 Z M19.7113043,8.60869565 L19.7113043,8.57391304 C19.7113043,6.27130435 18.1147826,4.79652174 16.2747826,4.79652174 C14.4556522,4.79652174 12.7026087,6.32347826 12.7026087,8.55652174 L12.7026087,8.59130435 C12.7026087,10.8417391 14.4556522,12.3513043 16.2747826,12.3513043 C18.1843478,12.3513043 19.7113043,10.96 19.7113043,8.60869565 Z" id="Shape"></path>
                    <path d="M22.6469565,8.59130435 L22.6469565,8.55652174 C22.6469565,6.01391304 24.4347826,3.98608696 26.8034783,3.98608696 C29.2591304,3.98608696 30.8243478,5.97913043 30.8243478,8.57043478 C30.8243478,8.72347826 30.8243478,8.77565217 30.8069565,8.91478261 L23.5408696,8.91478261 C23.693913,11.0956522 25.2591304,12.3686957 26.9773913,12.3686957 C28.333913,12.3686957 29.2626087,11.7669565 29.9826087,10.9947826 L30.5669565,11.5095652 C29.6730435,12.4730435 28.626087,13.1582609 26.9426087,13.1582609 C24.64,13.1617391 22.6469565,11.3217391 22.6469565,8.59130435 Z M29.9130435,8.16347826 C29.7913043,6.39304348 28.7791304,4.76173913 26.7686957,4.76173913 C25.0330435,4.76173913 23.693913,6.2226087 23.5408696,8.16347826 L29.9130435,8.16347826 Z" id="Shape"></path>
                    <path d="M33.2765217,4.19478261 L34.1182609,4.19478261 L34.1182609,5.82608696 C34.7026087,4.79652174 35.68,3.98956522 37.28,3.98956522 C39.4956522,3.98956522 40.7826087,5.5026087 40.7826087,7.59652174 L40.7826087,12.9565217 L39.9408696,12.9565217 L39.9408696,7.74956522 C39.9408696,5.94434783 38.9286957,4.76173913 37.1582609,4.76173913 C35.44,4.76173913 34.1182609,6.06608696 34.1182609,7.88869565 L34.1182609,12.9565217 L33.2765217,12.9565217 L33.2765217,4.19478261 Z" id="Path"></path>
                    <path d="M43.533913,8.53913043 L43.533913,8.50434783 C43.533913,5.6 45.6452174,3.88521739 47.7773913,3.88521739 C49.426087,3.88521739 50.4904348,4.77913043 51.1791304,5.77391304 L51.1791304,0.413913043 L52.5008696,0.413913043 L52.5008696,12.9530435 L51.1791304,12.9530435 L51.1791304,11.1652174 C50.4591304,12.2295652 49.4086957,13.1408696 47.7773913,13.1408696 C45.6486957,13.1443478 43.533913,11.4608696 43.533913,8.53913043 Z M51.2313043,8.52173913 L51.2313043,8.48695652 C51.2313043,6.44173913 49.6695652,5.06782609 48.0208696,5.06782609 C46.3026087,5.06782609 44.893913,6.3373913 44.893913,8.48695652 L44.893913,8.52173913 C44.893913,10.6156522 46.3373913,11.9582609 48.0208696,11.9582609 C49.666087,11.9582609 51.2313043,10.5669565 51.2313043,8.52173913 Z" id="Shape"></path>
                    <path d="M54.7826087,10.3791304 L54.7826087,10.3443478 C54.7826087,8.43826087 56.3269565,7.44 58.5773913,7.44 C59.7113043,7.44 60.5008696,7.59304348 61.2904348,7.81913043 L61.2904348,7.54434783 C61.2904348,5.96521739 60.3269565,5.14086957 58.6608696,5.14086957 C57.613913,5.14086957 56.7895652,5.39826087 55.9652174,5.7773913 L55.5686957,4.69565217 C56.546087,4.25043478 57.4921739,3.94086957 58.7965217,3.94086957 C60.0486957,3.94086957 61.0295652,4.28521739 61.666087,4.91826087 C62.2852174,5.5373913 62.5947826,6.39652174 62.5947826,7.53043478 L62.5947826,12.9565217 L61.2904348,12.9565217 L61.2904348,11.6347826 C60.6713043,12.4243478 59.6591304,13.1478261 58.093913,13.1478261 C56.4313043,13.1443478 54.7826087,12.1982609 54.7826087,10.3791304 Z M61.3113043,9.69043478 L61.3113043,8.86608696 C60.6573913,8.67826087 59.7982609,8.48695652 58.7165217,8.48695652 C57.0678261,8.48695652 56.1217391,9.20695652 56.1217391,10.2747826 L56.1217391,10.3095652 C56.1217391,11.426087 57.1513043,12.08 58.3547826,12.08 C59.9895652,12.0765217 61.3113043,11.0991304 61.3113043,9.69043478 Z" id="Shape"></path>
                    <path d="M65.773913,10.6017391 L65.773913,5.24173913 L64.5356522,5.24173913 L64.5356522,4.07304348 L65.773913,4.07304348 L65.773913,1.39478261 L67.0956522,1.39478261 L67.0956522,4.07304348 L69.9130435,4.07304348 L69.9130435,5.24173913 L67.0956522,5.24173913 L67.0956522,10.4278261 C67.0956522,11.5095652 67.6973913,11.906087 68.5913043,11.906087 C69.0365217,11.906087 69.4156522,11.8191304 69.8782609,11.5965217 L69.8782609,12.7304348 C69.4156522,12.9704348 68.9147826,13.1095652 68.2817391,13.1095652 C66.8591304,13.1095652 65.773913,12.4034783 65.773913,10.6017391 Z" id="Path"></path>
                    <path d="M71.5791304,10.3791304 L71.5791304,10.3443478 C71.5791304,8.43826087 73.1234783,7.44 75.373913,7.44 C76.5078261,7.44 77.2973913,7.59304348 78.0869565,7.81913043 L78.0869565,7.54434783 C78.0869565,5.96521739 77.1234783,5.14086957 75.4573913,5.14086957 C74.4104348,5.14086957 73.586087,5.39826087 72.7617391,5.7773913 L72.3652174,4.69565217 C73.3426087,4.25043478 74.2886957,3.94086957 75.5930435,3.94086957 C76.8452174,3.94086957 77.826087,4.28521739 78.4626087,4.91826087 C79.0817391,5.5373913 79.3913043,6.39652174 79.3913043,7.53043478 L79.3913043,12.9565217 L78.0869565,12.9565217 L78.0869565,11.6347826 C77.4678261,12.4243478 76.4556522,13.1478261 74.8904348,13.1478261 C73.2278261,13.1443478 71.5791304,12.1982609 71.5791304,10.3791304 Z M78.1078261,9.69043478 L78.1078261,8.86608696 C77.453913,8.67826087 76.5947826,8.48695652 75.5130435,8.48695652 C73.8643478,8.48695652 72.9182609,9.20695652 72.9182609,10.2747826 L72.9182609,10.3095652 C72.9182609,11.426087 73.9478261,12.08 75.1513043,12.08 C76.7826087,12.0765217 78.1078261,11.0991304 78.1078261,9.69043478 Z" id="Shape"></path>
                    <path d="M81.8782609,11.7356522 L82.9947826,10.0173913 C83.9895652,10.7373913 85.04,11.1165217 85.8991304,11.1165217 C86.653913,11.1165217 86.9982609,10.8417391 86.9982609,10.4278261 L86.9982609,10.3930435 C86.9982609,9.82608696 86.1043478,9.63826087 85.0921739,9.32869565 C83.8052174,8.94956522 82.3443478,8.35130435 82.3443478,6.56347826 L82.3443478,6.52869565 C82.3443478,4.6573913 83.8573913,3.61043478 85.7113043,3.61043478 C86.88,3.61043478 88.1495652,4.00695652 89.1478261,4.67478261 L88.1530435,6.48 C87.2417391,5.94782609 86.333913,5.62086957 85.6626087,5.62086957 C85.026087,5.62086957 84.6991304,5.89565217 84.6991304,6.2573913 L84.6991304,6.29217391 C84.6991304,6.80695652 85.5756522,7.04695652 86.5704348,7.39130435 C87.8573913,7.81913043 89.3530435,8.43826087 89.3530435,10.1217391 L89.3530435,10.1565217 C89.3530435,12.2017391 87.826087,13.1269565 85.8330435,13.1269565 C84.5391304,13.1269565 83.0956522,12.6956522 81.8782609,11.7356522 Z" id="Path"></path>
                    <path d="M90.4243478,8.40347826 L90.4243478,8.36869565 C90.4243478,5.72521739 92.5530435,3.57565217 95.4226087,3.57565217 C98.2747826,3.57565217 100.386087,5.68695652 100.386087,8.33391304 L100.386087,8.36869565 C100.386087,11.0121739 98.2573913,13.1617391 95.3878261,13.1617391 C92.5391304,13.1617391 90.4243478,11.0469565 90.4243478,8.40347826 Z M97.8121739,8.40347826 L97.8121739,8.36869565 C97.8121739,7.01217391 96.8347826,5.82608696 95.3913043,5.82608696 C93.8956522,5.82608696 93.0052174,6.9773913 93.0052174,8.33391304 L93.0052174,8.36869565 C93.0052174,9.72521739 93.9826087,10.9113043 95.426087,10.9113043 C96.9182609,10.9113043 97.8121739,9.76 97.8121739,8.40347826 Z" id="Shape"></path>
                    <path d="M102.372174,5.97913043 L101.290435,5.97913043 L101.290435,3.83304348 L102.372174,3.83304348 L102.372174,3.24869565 C102.372174,2.23652174 102.629565,1.49565217 103.109565,1.01565217 C103.589565,0.535652174 104.295652,0.295652174 105.22087,0.295652174 C106.045217,0.295652174 106.594783,0.4 107.074783,0.553043478 L107.074783,2.71652174 C106.695652,2.5773913 106.337391,2.49391304 105.888696,2.49391304 C105.286957,2.49391304 104.942609,2.80347826 104.942609,3.48869565 L104.942609,3.85043478 L107.053913,3.85043478 L107.053913,5.97913043 L104.973913,5.97913043 L104.973913,12.9530435 L102.361739,12.9530435 L102.361739,5.97913043 L102.372174,5.97913043 Z" id="Path"></path>
                    <path d="M109.648696,10.3443478 L109.648696,5.97913043 L108.549565,5.97913043 L108.549565,3.74608696 L109.648696,3.74608696 L109.648696,1.39478261 L112.26087,1.39478261 L112.26087,3.74956522 L114.424348,3.74956522 L114.424348,5.9826087 L112.26087,5.9826087 L112.26087,9.91304348 C112.26087,10.5147826 112.518261,10.8069565 113.102609,10.8069565 C113.582609,10.8069565 114.013913,10.6852174 114.389565,10.48 L114.389565,12.573913 C113.84,12.9008696 113.203478,13.106087 112.326957,13.106087 C110.730435,13.1095652 109.648696,12.4730435 109.648696,10.3443478 Z" id="Path"></path>
                </g>
            </g>
        </g>
    </g>
</svg>